HIERARCHY
ROOT Hips
{
  OFFSET -125.086 92.215 135.881
  CHANNELS 6 Xposition Yposition Zposition Zrotation Xrotation Yrotation
  JOINT LeftUpLeg
  {
    OFFSET 8.64259 1.95398 -2.38835
    CHANNELS 3 Zrotation Xrotation Yrotation
    JOINT LeftLeg
    {
      OFFSET 43.7702 0 0
      CHANNELS 3 Zrotation Xrotation Yrotation
      JOINT LeftFoot
      {
        OFFSET 40.6238 0 0
        CHANNELS 3 Zrotation Xrotation Yrotation
        JOINT LeftToeBase
        {
          OFFSET 12.7242 0 0
          CHANNELS 3 Zrotation Xrotation Yrotation
          End Site
          {
            OFFSET 0 0 0
          }
        }
      }
    }
  }
  JOINT RightUpLeg
  {
    OFFSET -8.2249 1.95398 -2.59336
    CHANNELS 3 Zrotation Xrotation Yrotation
    JOINT RightLeg
    {
      OFFSET 43.5653 0 0
      CHANNELS 3 Zrotation Xrotation Yrotation
      JOINT RightFoot
      {
        OFFSET 40.6238 0 0
        CHANNELS 3 Zrotation Xrotation Yrotation
        JOINT RightToeBase
        {
          OFFSET 12.7242 0 0
          CHANNELS 3 Zrotation Xrotation Yrotation
          End Site
          {
            OFFSET 0 0 0
          }
        }
      }
    }
  }
  JOINT Spine
  {
    OFFSET 0.165834 0.87714 6.61349
    CHANNELS 3 Zrotation Xrotation Yrotation
    JOINT Spine1
    {
      OFFSET 7.38963 1.71661e-005 0
      CHANNELS 3 Zrotation Xrotation Yrotation
      JOINT Spine2
      {
        OFFSET 11.9445 1.14441e-005 0
        CHANNELS 3 Zrotation Xrotation Yrotation
        JOINT Spine3
        {
          OFFSET 14.7254 4.19617e-005 0
          CHANNELS 3 Zrotation Xrotation Yrotation
          JOINT Spine4
          {
            OFFSET 10.9679 0 0
            CHANNELS 3 Zrotation Xrotation Yrotation
            JOINT RightShoulder
            {
              OFFSET 2.46616 -1.6653 3.69651
              CHANNELS 3 Zrotation Xrotation Yrotation
              JOINT RightArm
              {
                OFFSET 13.0012 0 0
                CHANNELS 3 Zrotation Xrotation Yrotation
                JOINT RightForeArm
                {
                  OFFSET 28.7848 1.52588e-005 0
                  CHANNELS 3 Zrotation Xrotation Yrotation
                  JOINT RightHand
                  {
                    OFFSET 26.5688 1.52588e-005 0
                    CHANNELS 3 Zrotation Xrotation Yrotation
                    End Site
                    {
                      OFFSET 0 0 0
                    }
                  }
                }
              }
            }
            JOINT LeftShoulder
            {
              OFFSET 2.38034 -1.29275 -3.7523
              CHANNELS 3 Zrotation Xrotation Yrotation
              JOINT LeftArm
              {
                OFFSET 16.3182 6.10352e-005 0
                CHANNELS 3 Zrotation Xrotation Yrotation
                JOINT LeftForeArm
                {
                  OFFSET 27.0901 0 0
                  CHANNELS 3 Zrotation Xrotation Yrotation
                  JOINT LeftHand
                  {
                    OFFSET 24.5451 1.52588e-005 0
                    CHANNELS 3 Zrotation Xrotation Yrotation
                    End Site
                    {
                      OFFSET 0 0 0
                    }
                  }
                }
              }
            }
            JOINT Neck
            {
              OFFSET 5.0226 -0.0266342 0
              CHANNELS 3 Zrotation Xrotation Yrotation
              JOINT Head
              {
                OFFSET 6.69363 2.86102e-005 0
                CHANNELS 3 Zrotation Xrotation Yrotation
                End Site
                {
                  OFFSET 0 0 0
                }
              }
            }
          }
        }
      }
    }
  }
}
MOTION
Frames:	7
Frame Time:	0.0416667
185.814 34.6177 -199.162 -127.391 -52.3624 -119.146 -153.222 79.5673 76.7142 -159.609 19.3781 3.58051 70.2046 10.8113 17.3016 68.1121 -0.628974 11.8304 -132.77 66.8919 16.7029 -154.83 -19.517 -3.08261 70.1011 2.23895 27.1392 62.3423 -4.36157 4.39787 0.686149 12.1038 -90.8853 2.67032 1.02381 -1.71505 -9.00143 0.947344 -1.75845 -31.5338 1.49187 -1.32815 -11.5212 1.49187 -1.32816 102.218 -43.0925 -82.0724 -7.26223 -33.3608 -58.3759 -78.7087 5.90255 -86.2449 27.0987 12.2557 42.0362 -83.4001 -34.9825 86.6373 -33.9931 17.9158 -60.9081 69.4632 34.7593 -86.3066 -28.3742 1.5081 -11.2857 -2.19767 2.78896 -7.71246 17.7227 7.00738 17.4605 
185.952 34.8301 -199.116 -129.975 -52.843 -122.346 -145.462 77.6664 67.5591 -158.894 16.4375 3.621 69.5168 10.7841 16.7576 68.8228 -0.875589 10.7508 -134.821 64.4559 17.35 -154.723 -20.1779 -2.96025 70.3887 2.05225 26.7193 60.9828 -3.81562 6.39817 0.519348 12.27 -90.9253 2.33549 0.677301 -1.79367 -9.33656 0.597711 -1.82174 -31.8656 1.185 -1.50729 -11.853 1.185 -1.50731 102.235 -42.2626 -82.0417 -5.71803 -33.1087 -58.0222 -79.9767 4.26187 -85.2971 25.5848 11.5776 42.0993 -83.685 -36.0955 86.2797 -33.9341 17.88 -61.1331 70.3567 34.8467 -87.0569 -28.5586 2.13136 -13.9059 -1.13556 1.67853 -6.70082 15.0455 5.25735 16.4502 
185.843 34.8077 -199.027 -129.055 -52.9913 -121.992 -135.594 76.8717 57.9305 -158.598 16.39 3.84563 67.683 10.2346 20.1964 71.8697 -0.93751 10.3981 -132.732 65.067 15.4086 -154.897 -20.1673 -2.95067 69.5782 1.96129 25.5436 62.7562 -3.86167 7.08665 0.516254 12.2138 -90.8768 2.44811 0.689122 -1.70058 -9.22381 0.613631 -1.72925 -31.7538 1.16831 -1.41494 -11.7412 1.16831 -1.41493 102.212 -42.5064 -82.0819 -9.25389 -34.2005 -59.2542 -72.6606 4.51844 -84.7524 18.2658 9.19459 46.7005 -84.0238 -35.8971 85.6397 -34.0927 17.5595 -60.7665 70.7871 34.5683 -87.4143 -28.803 2.07704 -13.579 -2.35349 1.56578 -7.64621 16.15 5.52587 17.3926 
185.837 34.8062 -198.899 -127.59 -53.3889 -120.918 -132.944 77.2516 55.3165 -158.491 16.6301 3.95099 67.9899 9.97106 18.5157 72.5055 -0.236198 12.9417 -130.605 65.4784 13.1807 -155.024 -20.5839 -3.01048 70.3808 1.91588 25.5969 61.6681 -4.03484 5.67356 0.468376 12.1209 -90.7898 2.63364 0.626248 -1.53365 -9.03809 0.558154 -1.55973 -31.5691 1.05819 -1.2746 -11.5564 1.0582 -1.2746 102.129 -42.959 -82.2237 -13.096 -36.1573 -60.2457 -61.9494 6.21476 -85.1855 5.37389 3.08802 51.2522 -83.6664 -35.4491 86.2202 -34.1341 17.5706 -60.6207 71.1249 34.7794 -87.5572 -28.901 2.4702 -15.2014 -0.703899 2.06273 -7.35129 14.3263 5.67777 16.6633 
185.849 34.7789 -198.838 -127.137 -53.6516 -120.271 -134.048 78.12 56.3304 -158.493 16.6874 3.91456 68.044 9.57694 16.9028 72.8127 0.00648129 13.7945 -130.772 66.5476 13.0984 -154.846 -20.2157 -3.11951 68.7402 2.01861 24.6237 65.5301 -3.89371 8.10277 0.452811 12.1122 -90.8095 2.65053 0.587492 -1.57281 -9.02126 0.517681 -1.59715 -31.5517 1.03297 -1.3236 -11.5391 1.03298 -1.32361 101.963 -42.77 -82.5094 -12.0214 -37.8185 -59.7054 -50.9419 3.01798 -82.8823 -13.2975 -6.58589 49.4765 -83.6322 -35.211 86.2466 -34.1472 17.4191 -60.6248 69.9466 34.3242 -86.8732 -28.9651 2.25818 -14.2847 -2.12718 1.97322 -8.93279 16.189 6.27086 18.2993 
185.773 34.9226 -198.787 -127.1 -53.7289 -120.349 -132.502 77.3083 54.7298 -158.519 16.3531 3.90495 68.1428 10.4489 19.5993 72.1739 -0.563408 11.7819 -131.25 65.8623 13.6161 -154.977 -20.8525 -3.01663 70.894 1.65524 25.278 61.3634 -4.26653 4.32765 0.476903 12.1478 -90.8805 2.57937 0.608297 -1.7104 -9.0926 0.532425 -1.73551 -31.622 1.09415 -1.44861 -11.6093 1.09415 -1.44861 102.117 -42.4573 -82.2449 -10.541 -38.8113 -58.9478 -36.8101 2.74835 -81.6393 -35.2873 -14.944 40.2357 -83.7095 -36.0981 86.2364 -33.446 17.5996 -61.2166 68.9273 34.3591 -86.5532 -29.6924 2.05785 -13.1918 -4.01273 1.80815 -8.84982 18.5321 6.55463 19.3481 
185.754 34.8979 -198.702 -126.984 -53.6411 -120.113 -132.888 77.4228 55.2535 -158.633 16.7127 3.8935 67.6425 10.1544 20.3636 72.7022 -0.744013 11.0799 -131.443 65.9842 13.9652 -155.039 -21.3702 -3.01951 70.7833 1.57063 24.5816 62.1454 -4.39011 4.13559 0.499457 12.1528 -90.8807 2.5697 0.653271 -1.71011 -9.10225 0.577391 -1.7372 -31.6319 1.13698 -1.4348 -11.6193 1.13698 -1.43481 102.137 -42.3036 -82.2107 -17.8933 -40.0954 -62.7355 -24.5213 5.23893 -82.9598 -54.1799 -21.2526 35.5269 -83.6584 -35.7926 86.2841 -33.6584 17.6922 -61.1451 69.3002 34.4562 -86.6951 -29.5397 2.05316 -13.2236 -2.46473 1.69918 -8.79563 16.6174 6.193 19.1641 
